<svg width="26" height="26" viewBox="0 0 26 26" fill="none" xmlns="http://www.w3.org/2000/svg">
<path d="M13.3643 2C7.09797 2 2 7.09797 2 13.3643C2 19.6305 7.09797 24.7285 13.3643 24.7285C19.6305 24.7285 24.7285 19.6305 24.7285 13.3643C24.7285 7.09797 19.6305 2 13.3643 2ZM20.878 7.24066C22.2299 8.89242 23.0486 10.9962 23.0699 13.2873C22.7499 13.2196 19.5407 12.5687 16.3109 12.9749C16.0473 12.3315 15.7985 11.7655 15.4578 11.068C19.0467 9.60269 20.6733 7.51748 20.878 7.24066V7.24066ZM19.7989 6.11817C19.6243 6.36685 18.1631 8.33081 14.7115 9.62455C13.1208 6.7021 11.3579 4.30131 11.0896 3.94205C14.1678 3.20003 17.4117 4.00025 19.7989 6.11817V6.11817ZM9.23743 4.59453C9.49335 4.9455 11.2279 7.34927 12.8363 10.2083C8.29575 11.4141 4.29659 11.3967 3.86246 11.391C4.49189 8.37888 6.52178 5.87544 9.23743 4.59453ZM3.65744 13.3791C3.65744 13.2798 3.65941 13.181 3.66239 13.0824C4.08708 13.0911 8.79097 13.1518 13.6385 11.701C13.9163 12.2449 14.1818 12.7969 14.4254 13.3484C10.9154 14.337 7.7263 17.1759 6.15286 19.8693C4.60251 18.1485 3.65744 15.8722 3.65744 13.3791ZM7.40613 21.0368C8.42007 18.964 11.1718 16.2884 15.0852 14.9534C16.448 18.4948 17.0116 21.4628 17.1559 22.3144C14.0348 23.6439 10.2817 23.2792 7.40613 21.0368V21.0368ZM18.7878 21.4258C18.6883 20.8353 18.1717 17.9937 16.9021 14.5049C19.9438 14.018 22.6163 14.815 22.9484 14.9198C22.5157 17.6207 20.9654 19.9533 18.7878 21.4258Z" fill="black"/>
</svg>
