<svg width="26" height="26" viewBox="0 0 26 26" fill="none" xmlns="http://www.w3.org/2000/svg">
<path d="M13.3808 2.95184C7.63078 2.95184 2.96411 7.61851 2.96411 13.3685C2.96411 19.1185 7.63078 23.7852 13.3808 23.7852H18.5891V21.7018H13.3808C8.85994 21.7018 5.04744 17.8893 5.04744 13.3685C5.04744 8.84768 8.85994 5.03518 13.3808 5.03518C17.9016 5.03518 21.7141 8.84768 21.7141 13.3685V14.8581C21.7141 15.681 20.9745 16.4935 20.1516 16.4935C19.3287 16.4935 18.5891 15.681 18.5891 14.8581V13.3685C18.5891 10.4935 16.2558 8.16018 13.3808 8.16018C10.5058 8.16018 8.17245 10.4935 8.17245 13.3685C8.17245 16.2435 10.5058 18.5768 13.3808 18.5768C14.8183 18.5768 16.1308 17.9935 17.0683 17.0456C17.7454 17.9727 18.912 18.5768 20.1516 18.5768C22.2037 18.5768 23.7974 16.9102 23.7974 14.8581V13.3685C23.7974 7.61851 19.1308 2.95184 13.3808 2.95184ZM13.3808 16.4935C11.6516 16.4935 10.2558 15.0977 10.2558 13.3685C10.2558 11.6393 11.6516 10.2435 13.3808 10.2435C15.1099 10.2435 16.5058 11.6393 16.5058 13.3685C16.5058 15.0977 15.1099 16.4935 13.3808 16.4935Z" fill="black"/>
</svg>
