<svg width="26" height="26" viewBox="0 0 26 26" fill="none" xmlns="http://www.w3.org/2000/svg">
<path d="M21.9746 2.43103H4.78711C4.16551 2.43103 3.56937 2.67796 3.12983 3.1175C2.69029 3.55704 2.44336 4.15318 2.44336 4.77478L2.44336 21.9623C2.44336 22.5839 2.69029 23.18 3.12983 23.6196C3.56937 24.0591 4.16551 24.306 4.78711 24.306H11.4888V16.869H8.4126V13.3685H11.4888V10.7006C11.4888 7.66589 13.2954 5.98962 16.0625 5.98962C17.3877 5.98962 18.7734 6.22595 18.7734 6.22595V9.20447H17.2466C15.7422 9.20447 15.2729 10.1381 15.2729 11.0956V13.3685H18.6313L18.0942 16.869H15.2729V24.306H21.9746C22.5962 24.306 23.1924 24.0591 23.6319 23.6196C24.0714 23.18 24.3184 22.5839 24.3184 21.9623V4.77478C24.3184 4.15318 24.0714 3.55704 23.6319 3.1175C23.1924 2.67796 22.5962 2.43103 21.9746 2.43103Z" fill="black"/>
</svg>
