<svg width="727" height="655" viewBox="0 0 727 655" fill="none" xmlns="http://www.w3.org/2000/svg">
<path d="M526.331 650.222C420.625 272.418 158.315 278.29 11.5 509.28V650.222H526.331Z" fill="white"/>
<path d="M11.5 509.28C158.315 278.29 420.625 272.418 526.331 650.222" stroke="black" stroke-width="3.91507" stroke-linecap="round"/>
<path d="M0 652L726 652.5" stroke="black" stroke-width="3"/>
<path d="M434.327 86.4521C433.303 178.42 424.797 220.68 407.657 276.771C403.65 289.884 392.899 299.815 379.564 303.004L346.238 310.973L332.536 368.337C278.219 403.479 252.895 399.502 215.084 352.677L283.597 49.2589L434.327 86.4521Z" fill="white"/>
<path d="M326.663 315.484L346.238 310.973M346.238 310.973L379.564 303.004C392.899 299.815 403.65 289.884 407.657 276.771C424.797 220.68 433.303 178.42 434.327 86.4521L283.597 49.2589L215.084 352.677C252.895 399.502 278.219 403.479 332.536 368.337L346.238 310.973Z" stroke="black" stroke-width="3.91507" stroke-linejoin="round"/>
<path d="M363.856 207.819L379.516 211.734C391.853 185.536 393.111 171.062 397.134 145.178" stroke="black" stroke-width="3.91507" stroke-linecap="round"/>
<ellipse cx="411.615" cy="174.366" rx="5.99317" ry="10.4805" transform="rotate(12.0586 411.615 174.366)" fill="black"/>
<ellipse cx="361.71" cy="161.668" rx="5.99317" ry="10.4805" transform="rotate(12.0586 361.71 161.668)" fill="black"/>
<path d="M218.719 122.909C245.252 119.545 277.725 84.6145 277.725 74.7069C299.841 38.3578 302.339 34.8312 322.748 21.3575C275.687 -35.6109 205.344 41.1725 201.381 41.1725C211.159 52.1774 228.627 48.6031 243.488 46.1261C223.721 70.2374 231.103 100.618 218.719 122.909Z" fill="black"/>
<path d="M342.323 64.9192C338.877 81.9261 337.322 95.4396 320.79 98.1971L316.875 143.221L309.045 147.136C305.13 123.645 271.852 129.518 281.64 160.838L256.192 168.668L277.725 64.9192C281.865 42.3015 285.555 33.5986 309.045 29.6836C357.984 -5.55195 461.733 33.5986 434.327 94.282C403.399 99.8515 383.311 93.6101 342.323 64.9192Z" fill="black"/>
<path d="M328.5 20.5C313 26.5 299.602 37.3708 291.427 47.3014L287.512 39.4712C297.009 28.7459 303.555 23.2218 317.5 16L328.5 20.5Z" fill="#72F551"/>
<path d="M330.578 209.777C331.572 222.279 340.71 239.794 357.984 241.097" stroke="black" stroke-width="3.91507" stroke-linecap="round"/>
<path d="M185.721 632.604H301.484L314.918 652.179H185.721C181.396 652.179 177.89 648.674 177.89 644.349V640.434C177.89 636.11 181.396 632.604 185.721 632.604Z" fill="black" stroke="black" stroke-width="3.91507"/>
<path d="M699.531 434.893H387.281C379.086 434.893 371.758 439.998 368.919 447.686L303.121 625.821C298.399 638.604 307.857 652.179 321.484 652.179H644.967C653.57 652.179 661.164 646.563 663.684 638.337L718.248 460.202C722.102 447.619 712.691 434.893 699.531 434.893Z" fill="black" stroke="black" stroke-width="3.91507"/>
<path d="M311.003 646.307L383.432 452.511C386.954 441.492 392.662 438.116 399.092 434.893" stroke="#2B2B2B" stroke-width="3.91507" stroke-linecap="round"/>
<ellipse cx="532.422" cy="544.706" rx="22.8697" ry="18.5136" transform="rotate(-38.3243 532.422 544.706)" fill="white"/>
</svg>
