<svg width="26" height="26" viewBox="0 0 26 26" fill="none" xmlns="http://www.w3.org/2000/svg">
<g clip-path="url(#clip0)">
<path d="M23.311 8.27656C23.3269 8.49863 23.3269 8.72075 23.3269 8.94282C23.3269 15.7163 18.1715 23.5208 8.74888 23.5208C5.84595 23.5208 3.14927 22.6801 0.880859 21.2208C1.29331 21.2683 1.68984 21.2842 2.11816 21.2842C4.51343 21.2842 6.71841 20.4752 8.4792 19.0951C6.22666 19.0475 4.33896 17.5723 3.68857 15.5418C4.00586 15.5894 4.3231 15.6211 4.65625 15.6211C5.11626 15.6211 5.57632 15.5576 6.00459 15.4466C3.65688 14.9707 1.89604 12.9085 1.89604 10.4181V10.3546C2.57812 10.7354 3.37134 10.9733 4.21201 11.005C2.83193 10.0849 1.92778 8.5145 1.92778 6.73784C1.92778 5.78608 2.18154 4.91362 2.62573 4.1522C5.14795 7.26133 8.93921 9.29175 13.1904 9.51387C13.1111 9.13315 13.0635 8.73662 13.0635 8.34004C13.0635 5.51641 15.3478 3.21631 18.1873 3.21631C19.6625 3.21631 20.995 3.83496 21.9309 4.83433C23.0889 4.61226 24.1993 4.18394 25.1828 3.59702C24.8021 4.78677 23.9931 5.78613 22.9303 6.42061C23.9614 6.30962 24.9607 6.02402 25.8808 5.62749C25.1829 6.64268 24.3104 7.54683 23.311 8.27656Z" fill="black"/>
</g>
<defs>
<clipPath id="clip0">
<rect width="25" height="25" fill="white" transform="translate(0.880859 0.86853)"/>
</clipPath>
</defs>
</svg>
