<svg width="23" height="21" viewBox="0 0 23 21" fill="none" xmlns="http://www.w3.org/2000/svg">
<g clip-path="url(#clip0)">
<path fill-rule="evenodd" clip-rule="evenodd" d="M11.6843 1.35187C6.38614 1.35187 2.09689 5.61925 2.09689 10.8745C2.09689 14.7333 4.40952 18.0539 7.73801 19.5475C8.08626 19.7041 8.42664 19.642 8.69264 19.4425C8.83975 19.3279 8.95833 19.1809 9.03909 19.0128C9.11985 18.8448 9.1606 18.6603 9.15814 18.4739V17.9751L7.97077 17.8141C7.96197 17.8129 7.95322 17.8115 7.94451 17.8098C7.29001 17.682 6.84814 17.4519 6.52439 17.1202C6.25227 16.8411 6.08602 16.5069 5.94514 16.2234L5.89614 16.1245C5.76594 15.8529 5.62375 15.5872 5.47001 15.3282C5.35189 15.141 5.26002 15.0447 5.16902 14.9844C4.93802 14.8313 4.71576 14.5714 4.71576 14.2467C4.71498 14.1533 4.73498 14.0609 4.77433 13.9761C4.81367 13.8914 4.87138 13.8164 4.94327 13.7568C5.07894 13.6493 5.24803 13.593 5.42102 13.5975C5.61527 13.5975 5.79814 13.657 5.95039 13.7252C6.10614 13.7952 6.26102 13.888 6.40539 13.9843C6.75714 14.2188 7.10364 14.4961 7.39677 14.8383C7.70214 15.1935 7.91826 15.4192 8.24376 15.4656C8.51151 15.5041 8.78452 15.505 8.99714 15.4954C9.02669 15.327 9.07542 15.1626 9.14239 15.0054C8.8827 14.9448 8.62653 14.87 8.37502 14.7814C7.80277 14.5784 7.16489 14.2625 6.73614 13.7839C6.26539 13.2571 5.97402 12.7873 5.81127 12.2378C5.65289 11.7023 5.62664 11.1221 5.62664 10.4081C5.62664 9.31438 6.10002 8.393 6.45527 7.90387C6.31878 7.47565 6.22068 7.03612 6.16214 6.5905C6.12337 6.30948 6.12366 6.02444 6.16302 5.7435C6.20677 5.48713 6.31614 5.17212 6.60401 4.98225C6.88139 4.79762 7.20689 4.8055 7.46064 4.85275C7.72402 4.90263 7.99789 5.012 8.24989 5.13712C8.66026 5.34012 9.06802 5.61138 9.37339 5.8415C9.90014 5.68663 10.832 5.48712 11.6746 5.46875H11.6939C12.5374 5.48712 13.4273 5.68663 13.9409 5.84063C14.2471 5.61138 14.654 5.33925 15.0635 5.13712C15.3155 5.012 15.5885 4.90263 15.8528 4.85275C16.1065 4.8055 16.432 4.79762 16.7103 4.98137C16.9973 5.17212 17.1075 5.48713 17.1504 5.7435C17.195 6.01038 17.1845 6.30875 17.1504 6.5905C17.0921 7.03609 16.9943 7.47561 16.8581 7.90387C17.2134 8.39387 17.6868 9.31525 17.6868 10.4081C17.6868 11.1221 17.6605 11.7022 17.503 12.2369C17.3394 12.7881 17.048 13.2571 16.5773 13.7839C16.1485 14.2625 15.5106 14.5784 14.9384 14.7814C14.6346 14.8881 14.3242 14.975 14.0091 15.0413C14.1168 15.3668 14.1553 15.6301 14.1553 15.7815V18.4852C14.1553 18.8965 14.3469 19.2474 14.619 19.4521C14.8833 19.6525 15.2228 19.7146 15.571 19.5624C18.931 18.0819 21.2708 14.7525 21.2708 10.8736C21.2708 5.61925 16.9833 1.35187 11.6843 1.35187ZM9.47576 16.3712C9.24826 16.4036 9.47489 16.3712 9.47489 16.3712H9.47227L9.46526 16.373L9.43989 16.3765C9.30993 16.3918 9.17947 16.4026 9.04877 16.4089C8.80202 16.4203 8.46339 16.4211 8.11602 16.3712C7.42389 16.2732 7.00302 15.7832 6.73089 15.4647L6.70464 15.435C6.61567 15.3318 6.52009 15.2345 6.41852 15.1436C6.50864 15.3099 6.60227 15.4954 6.70289 15.6949L6.71164 15.7124L6.75627 15.8034C6.90939 16.1079 7.01002 16.3109 7.17714 16.4806C7.33989 16.6469 7.59364 16.8079 8.10639 16.9094L9.67614 17.122C9.78578 17.1368 9.8863 17.191 9.95904 17.2743C10.0318 17.3577 10.0718 17.4646 10.0716 17.5753V18.4739C10.0716 19.1739 9.74351 19.7978 9.24039 20.1758C8.97624 20.3776 8.662 20.5035 8.33156 20.5399C8.00112 20.5763 7.66701 20.5218 7.36527 20.3823C3.72352 18.7486 1.18427 15.1113 1.18427 10.8745C1.18427 5.1065 5.88914 0.4375 11.6843 0.4375C17.4794 0.4375 22.1843 5.1065 22.1843 10.8745C22.1843 15.1331 19.6126 18.7801 15.9394 20.3997C15.6374 20.5366 15.3039 20.5888 14.9745 20.5507C14.6451 20.5127 14.3323 20.3858 14.0695 20.1836C13.8097 19.9836 13.5997 19.726 13.4561 19.4312C13.3125 19.1364 13.2391 18.8123 13.2418 18.4844V15.7806C13.2418 15.7194 13.1989 15.3659 12.96 14.8907C12.927 14.8249 12.9104 14.752 12.9116 14.6783C12.9127 14.6047 12.9316 14.5324 12.9667 14.4676C13.0017 14.4028 13.0518 14.3473 13.1128 14.306C13.1738 14.2647 13.2438 14.2386 13.317 14.2301C13.6171 14.1969 14.1229 14.0997 14.633 13.9186C15.1528 13.7349 15.6191 13.4829 15.8965 13.1731C16.3086 12.7129 16.5143 12.3594 16.6271 11.977C16.7444 11.5806 16.7741 11.1195 16.7741 10.4081C16.7741 9.40975 16.2491 8.57063 16.0076 8.30025C15.9528 8.23915 15.9154 8.16442 15.8994 8.08391C15.8834 8.00339 15.8894 7.92005 15.9166 7.84263C16.0391 7.49788 16.1879 6.9615 16.2448 6.48287C16.2728 6.24225 16.2745 6.041 16.25 5.89575C16.2445 5.84264 16.2285 5.79117 16.2028 5.74438C16.1425 5.73395 16.0807 5.73664 16.0216 5.75225C15.8729 5.78025 15.683 5.85025 15.4678 5.957C15.039 6.16875 14.5928 6.482 14.3163 6.706C14.2553 6.75547 14.1825 6.78832 14.1051 6.80135C14.0277 6.81439 13.9482 6.80716 13.8744 6.78038C13.1659 6.54863 12.429 6.41526 11.6843 6.384C10.8031 6.405 9.78639 6.65525 9.43902 6.78038C9.3652 6.80716 9.28572 6.81439 9.20829 6.80135C9.13086 6.78832 9.05812 6.75547 8.99714 6.706C8.63956 6.41812 8.25376 6.16718 7.84564 5.957C7.67039 5.86497 7.48391 5.79614 7.29089 5.75225C7.23206 5.73676 7.17059 5.73408 7.11064 5.74438C7.08492 5.79116 7.06885 5.84264 7.06339 5.89575C7.03889 6.041 7.04064 6.24225 7.06864 6.48287C7.12552 6.9615 7.27514 7.49788 7.39677 7.84263C7.45189 8.00013 7.41776 8.17513 7.30576 8.30025C7.06426 8.57063 6.53927 9.40975 6.53927 10.4081C6.53927 11.1186 6.56902 11.5806 6.68627 11.977C6.80002 12.3594 7.00477 12.712 7.41602 13.1731C7.69427 13.4829 8.15977 13.7349 8.68039 13.9186C9.10632 14.0694 9.54723 14.1738 9.99551 14.2301C10.0877 14.24 10.1748 14.2778 10.245 14.3383C10.3153 14.3989 10.3654 14.4794 10.3888 14.5692C10.4122 14.659 10.4076 14.7537 10.3758 14.8409C10.344 14.928 10.2865 15.0034 10.2108 15.057C10.0664 15.1603 9.97102 15.3458 9.91764 15.5601C9.89008 15.6705 9.87367 15.7834 9.86864 15.897V15.9136C9.86976 16.0246 9.83053 16.1321 9.75826 16.2163C9.68599 16.3005 9.5856 16.3556 9.47576 16.3712V16.3712Z" fill="black" stroke="black" stroke-width="0.3"/>
</g>
<defs>
<clipPath id="clip0">
<rect width="22" height="21" fill="white" transform="translate(0.592133)"/>
</clipPath>
</defs>
</svg>
